<svg version="1.1" id="Layer_1" xmlns="http://www.w3.org/2000/svg" xmlns:xlink="http://www.w3.org/1999/xlink" x="0px" y="0px"
	 width="100%" viewBox="0 0 103 109" enable-background="new 0 0 103 109" xml:space="preserve">
<path fill="#FBB03B" opacity="1.000000" stroke="none" 
	d="
M104.000000,99.000000 
	C104.000000,102.651360 104.000000,106.302711 104.000000,109.977036 
	C69.666672,109.977036 35.333340,109.977036 1.000002,109.977547 
	C1.000000,108.318352 1.000000,106.658653 1.354374,104.294189 
	C3.794016,81.220375 15.792894,66.420845 36.462784,58.440517 
	C33.738121,55.552055 30.996624,52.993492 28.658987,50.107769 
	C18.172544,37.162666 21.322222,15.904893 35.458851,7.050067 
	C40.086716,4.151291 45.789043,2.967880 51.000000,1.000000 
	C52.066669,1.000000 53.133339,1.000000 54.794853,1.348524 
	C68.783607,3.134293 78.102486,10.065771 81.818504,23.033924 
	C85.943336,37.428719 80.702690,49.014664 68.808403,58.150768 
	C78.822815,62.420929 88.346306,67.205963 93.831215,76.591438 
	C97.948059,83.635956 100.661674,91.500519 104.000000,99.000000 
M35.500000,104.000000 
	C56.250935,104.000000 77.001869,104.000000 97.808113,104.000000 
	C95.403351,78.431396 73.637573,59.782230 48.941826,62.209991 
	C22.724245,64.787369 6.945286,87.920204 8.658327,104.000000 
	C17.239708,104.000000 25.869854,104.000000 35.500000,104.000000 
M75.015427,22.671606 
	C69.900040,9.789287 55.402130,4.669478 43.351536,9.358629 
	C31.587784,13.936162 25.548912,28.948853 30.342154,40.775108 
	C35.046394,52.381779 49.110348,58.927784 60.276604,54.868984 
	C73.859634,49.931713 80.862350,34.187500 75.015427,22.671606 
z"/>
<path fill="#FFFFFF" opacity="1.000000" stroke="none" 
	d="
M50.531342,1.000000 
	C45.789043,2.967880 40.086716,4.151291 35.458851,7.050067 
	C21.322222,15.904893 18.172544,37.162666 28.658987,50.107769 
	C30.996624,52.993492 33.738121,55.552055 36.462784,58.440517 
	C15.792894,66.420845 3.794016,81.220375 1.354374,103.794708 
	C1.000000,69.765114 1.000000,35.530231 1.000000,1.000000 
	C17.353043,1.000000 33.707863,1.000000 50.531342,1.000000 
z"/>
<path fill="#FFFFFF" opacity="1.000000" stroke="none" 
	d="
M104.000000,98.531342 
	C100.661674,91.500519 97.948059,83.635956 93.831215,76.591438 
	C88.346306,67.205963 78.822815,62.420929 68.808403,58.150768 
	C80.702690,49.014664 85.943336,37.428719 81.818504,23.033924 
	C78.102486,10.065771 68.783607,3.134293 55.194847,1.348524 
	C71.284576,1.000000 87.569153,1.000000 104.000000,1.000000 
	C104.000000,33.354092 104.000000,65.708389 104.000000,98.531342 
z"/>
<path fill="#FFFFFF" opacity="1.000000" stroke="none" 
	d="
M35.000000,104.000000 
	C25.869854,104.000000 17.239708,104.000000 8.658327,104.000000 
	C6.945286,87.920204 22.724245,64.787369 48.941826,62.209991 
	C73.637573,59.782230 95.403351,78.431396 97.808113,104.000000 
	C77.001869,104.000000 56.250935,104.000000 35.000000,104.000000 
z"/>
<path fill="#FFFFFF" opacity="1.000000" stroke="none" 
	d="
M75.078171,23.068085 
	C80.862350,34.187500 73.859634,49.931713 60.276604,54.868984 
	C49.110348,58.927784 35.046394,52.381779 30.342154,40.775108 
	C25.548912,28.948853 31.587784,13.936162 43.351536,9.358629 
	C55.402130,4.669478 69.900040,9.789287 75.078171,23.068085 
z"/>
</svg>