<svg version="1.1" id="Layer_1" xmlns="http://www.w3.org/2000/svg" xmlns:xlink="http://www.w3.org/1999/xlink" x="0px" y="0px"
	 width="100%" viewBox="0 0 136 129" enable-background="new 0 0 136 129" xml:space="preserve">
<path fill="#FFFFFF" opacity="1.000000" stroke="none" 
	d="
M1.000000,66.000000 
	C1.000000,44.404842 1.000000,22.809689 1.000000,1.000000 
	C23.353771,1.000000 45.708225,1.000000 68.531342,1.468654 
	C69.000000,10.200421 69.000000,18.463535 69.000000,26.726648 
	C69.554306,26.970224 70.108620,27.213802 70.662926,27.457378 
	C71.441475,26.280264 72.861938,25.120424 72.894150,23.923223 
	C73.099678,16.286730 72.999527,8.642011 73.000000,1.000000 
	C94.262383,1.000000 115.524773,1.000000 137.000000,1.000000 
	C137.000000,23.353777 137.000000,45.708229 136.531342,68.531342 
	C127.799583,69.000000 119.536476,69.000000 111.273361,69.000000 
	C111.029785,69.554306 110.786201,70.108620 110.542618,70.662926 
	C111.719734,71.441475 112.879570,72.861946 114.076775,72.894157 
	C121.713272,73.099686 129.357986,72.999527 137.000000,73.000000 
	C137.000000,91.929283 137.000000,110.858574 137.000000,130.000000 
	C116.979607,130.000000 96.958458,130.000000 76.625237,129.644379 
	C84.894318,127.894043 84.852577,127.767570 85.077293,119.210182 
	C85.159660,116.073418 85.345169,112.490883 86.875679,109.950317 
	C88.946129,106.513474 92.357697,103.884575 95.026131,101.085037 
	C101.845428,107.495064 108.213730,113.481163 114.758171,119.632828 
	C115.193245,119.252869 116.105461,118.456200 117.169342,117.527084 
	C110.568726,111.021111 104.401787,104.942596 98.255585,98.884521 
	C115.591415,76.272011 110.015381,55.435150 97.708244,42.716263 
	C83.993820,28.543007 63.811405,27.018076 48.109863,36.604473 
	C40.925480,40.990814 35.147186,47.177017 32.000599,55.366467 
	C26.252722,70.326141 29.123907,84.052948 38.359600,96.908119 
	C34.659256,97.459412 21.587929,109.693016 17.873280,115.794930 
	C18.953939,116.200859 20.548950,117.176407 20.864735,116.863007 
	C27.091154,110.683586 33.169147,104.354607 39.641106,97.680977 
	C43.087765,101.282837 46.276794,104.926521 49.809734,108.198929 
	C52.193504,110.406906 53.137226,112.716415 53.076839,115.987450 
	C52.885315,126.362007 53.016296,126.364426 62.000000,130.000000 
	C41.740459,130.000000 21.480919,130.000000 1.000000,130.000000 
	C1.000000,110.312988 1.000000,90.625153 1.468654,70.468658 
	C9.867446,70.000000 17.797585,70.000000 25.727722,70.000000 
	C25.970982,69.445717 26.214241,68.891426 26.457499,68.337143 
	C25.280510,67.558571 24.121914,66.140579 22.923517,66.106094 
	C15.620705,65.896011 8.308843,66.000473 1.000000,66.000000 
M39.621685,34.094551 
	C35.027977,29.503988 30.521553,24.819061 25.757530,20.412638 
	C24.931200,19.648335 23.015438,20.061874 21.602873,19.931379 
	C21.835144,21.225653 21.618954,22.940552 22.373468,23.744997 
	C26.814056,28.479464 31.411192,33.075718 36.136398,37.526577 
	C36.974422,38.315945 38.662689,38.202660 39.958344,38.506195 
	C40.008839,37.221535 40.059334,35.936871 39.621685,34.094551 
M109.998283,27.502138 
	C107.053871,30.447142 104.238350,33.537865 101.124924,36.291782 
	C98.559090,38.561356 98.615784,40.153538 100.738892,41.251331 
	C106.872948,35.168880 112.745461,29.345772 118.684540,23.456661 
	C118.133102,22.898817 117.285522,22.041382 116.223701,20.967220 
	C114.163727,23.138138 112.330276,25.070324 109.998283,27.502138 
z"/>
<path fill="#93278F" opacity="1.000000" stroke="none" 
	d="
M62.464649,130.000000 
	C53.016296,126.364426 52.885315,126.362007 53.076839,115.987450 
	C53.137226,112.716415 52.193504,110.406906 49.809734,108.198929 
	C46.276794,104.926521 43.087765,101.282837 39.641106,97.680977 
	C33.169147,104.354607 27.091154,110.683586 20.864735,116.863007 
	C20.548950,117.176407 18.953939,116.200859 17.873280,115.794930 
	C21.587929,109.693016 34.659256,97.459412 38.359600,96.908119 
	C29.123907,84.052948 26.252722,70.326141 32.000599,55.366467 
	C35.147186,47.177017 40.925480,40.990814 48.109863,36.604473 
	C63.811405,27.018076 83.993820,28.543007 97.708244,42.716263 
	C110.015381,55.435150 115.591415,76.272011 98.255585,98.884521 
	C104.401787,104.942596 110.568726,111.021111 117.169342,117.527084 
	C116.105461,118.456200 115.193245,119.252869 114.758171,119.632828 
	C108.213730,113.481163 101.845428,107.495064 95.026131,101.085037 
	C92.357697,103.884575 88.946129,106.513474 86.875679,109.950317 
	C85.345169,112.490883 85.159660,116.073418 85.077293,119.210182 
	C84.852577,127.767570 84.894318,127.894043 76.156578,129.644379 
	C71.643097,130.000000 67.286201,130.000000 62.464649,130.000000 
M40.919495,88.594551 
	C47.268509,95.721161 53.617523,102.847763 59.989128,109.999733 
	C65.193924,109.999733 70.359451,110.061752 75.521347,109.952377 
	C76.686050,109.927696 78.179329,109.652344 78.940269,108.902618 
	C83.671371,104.241234 88.307556,99.477875 92.844681,94.626266 
	C108.156517,78.253105 105.538467,55.485004 87.545761,42.750420 
	C75.113205,33.951111 55.444263,35.192841 43.613972,48.689690 
	C34.850178,58.688057 31.681147,76.112358 40.919495,88.594551 
M75.275978,117.000191 
	C69.896904,117.000191 64.517838,117.000191 59.207451,117.000191 
	C59.207451,119.318939 59.207451,120.930511 59.207451,123.121750 
	C65.883713,123.121750 72.354980,123.121750 79.438217,123.121750 
	C78.265869,120.342407 80.933655,116.841202 75.275978,117.000191 
z"/>
<path fill="#93278F" opacity="1.000000" stroke="none" 
	d="
M72.600006,1.000000 
	C72.999527,8.642011 73.099678,16.286730 72.894150,23.923223 
	C72.861938,25.120424 71.441475,26.280264 70.662926,27.457378 
	C70.108620,27.213802 69.554306,26.970224 69.000000,26.726648 
	C69.000000,18.463535 69.000000,10.200421 69.000000,1.468654 
	C70.066673,1.000000 71.133339,1.000000 72.600006,1.000000 
z"/>
<path fill="#93278F" opacity="1.000000" stroke="none" 
	d="
M137.000000,72.600006 
	C129.357986,72.999527 121.713272,73.099686 114.076775,72.894157 
	C112.879570,72.861946 111.719734,71.441475 110.542618,70.662926 
	C110.786201,70.108620 111.029785,69.554306 111.273361,69.000000 
	C119.536476,69.000000 127.799583,69.000000 136.531342,69.000000 
	C137.000000,70.066673 137.000000,71.133339 137.000000,72.600006 
z"/>
<path fill="#93278F" opacity="1.000000" stroke="none" 
	d="
M1.000000,66.399994 
	C8.308843,66.000473 15.620705,65.896011 22.923517,66.106094 
	C24.121914,66.140579 25.280510,67.558571 26.457499,68.337143 
	C26.214241,68.891426 25.970982,69.445717 25.727722,70.000000 
	C17.797585,70.000000 9.867446,70.000000 1.468654,70.000000 
	C1.000000,68.933327 1.000000,67.866661 1.000000,66.399994 
z"/>
<path fill="#93278F" opacity="1.000000" stroke="none" 
	d="
M39.865761,34.373383 
	C40.059334,35.936871 40.008839,37.221535 39.958344,38.506195 
	C38.662689,38.202660 36.974422,38.315945 36.136398,37.526577 
	C31.411192,33.075718 26.814056,28.479464 22.373468,23.744997 
	C21.618954,22.940552 21.835144,21.225653 21.602873,19.931379 
	C23.015438,20.061874 24.931200,19.648335 25.757530,20.412638 
	C30.521553,24.819061 35.027977,29.503988 39.865761,34.373383 
z"/>
<path fill="#93278F" opacity="1.000000" stroke="none" 
	d="
M110.247559,27.252323 
	C112.330276,25.070324 114.163727,23.138138 116.223701,20.967220 
	C117.285522,22.041382 118.133102,22.898817 118.684540,23.456661 
	C112.745461,29.345772 106.872948,35.168880 100.738892,41.251331 
	C98.615784,40.153538 98.559090,38.561356 101.124924,36.291782 
	C104.238350,33.537865 107.053871,30.447142 110.247559,27.252323 
z"/>
<path fill="#FFFFFF" opacity="1.000000" stroke="none" 
	d="
M40.694126,88.295258 
	C31.681147,76.112358 34.850178,58.688057 43.613972,48.689690 
	C55.444263,35.192841 75.113205,33.951111 87.545761,42.750420 
	C105.538467,55.485004 108.156517,78.253105 92.844681,94.626266 
	C88.307556,99.477875 83.671371,104.241234 78.940269,108.902618 
	C78.179329,109.652344 76.686050,109.927696 75.521347,109.952377 
	C70.359451,110.061752 65.193924,109.999733 59.989128,109.999733 
	C53.617523,102.847763 47.268509,95.721161 40.694126,88.295258 
z"/>
<path fill="#FFFFFF" opacity="1.000000" stroke="none" 
	d="
M75.748932,117.000954 
	C80.933655,116.841202 78.265869,120.342407 79.438217,123.121750 
	C72.354980,123.121750 65.883713,123.121750 59.207451,123.121750 
	C59.207451,120.930511 59.207451,119.318939 59.207451,117.000191 
	C64.517838,117.000191 69.896904,117.000191 75.748932,117.000954 
z"/>
</svg>