<svg version="1.1" id="Layer_1" xmlns="http://www.w3.org/2000/svg" xmlns:xlink="http://www.w3.org/1999/xlink" x="0px" y="0px"
	 width="100%" viewBox="0 0 127 121" enable-background="new 0 0 127 121" xml:space="preserve">
<path fill="#8CC63F" opacity="1.000000" stroke="none" 
	d="
M128.000000,57.000000 
	C128.000000,59.700016 128.000000,62.400028 127.670975,65.656128 
	C126.003487,67.858154 124.998810,70.256332 123.270340,71.023300 
	C114.533379,74.900116 113.847000,81.084839 117.396202,88.861679 
	C117.791031,89.726814 117.917671,90.758224 117.979218,91.724594 
	C118.433884,98.863419 114.783241,102.800697 107.571487,102.994644 
	C106.409111,103.025909 105.245064,102.988800 104.082016,103.002136 
	C96.331978,103.090988 95.763474,103.870102 92.791870,111.144409 
	C91.201294,115.038017 88.306320,118.398773 86.000000,122.000000 
	C83.299988,122.000000 80.599968,122.000000 77.316833,121.675095 
	C74.375900,119.950142 71.829826,118.786781 69.703712,117.095490 
	C66.380524,114.451942 63.487373,113.843040 59.978748,116.916962 
	C57.634266,118.970970 54.680889,120.329971 52.000000,122.000000 
	C49.299988,122.000000 46.599972,122.000000 43.345551,121.672173 
	C40.980644,118.485992 38.770981,115.801422 37.436329,112.735893 
	C33.789627,104.359909 35.577736,103.272385 23.866541,103.002945 
	C22.870108,102.980026 21.870628,103.040588 20.876122,102.990997 
	C14.733265,102.684708 11.927270,99.835732 12.051510,93.627518 
	C12.109917,90.708954 12.007588,87.457657 13.219296,84.959076 
	C15.886062,79.460121 13.523837,76.353897 9.493641,73.036888 
	C6.327747,70.431229 3.807220,67.041451 1.000000,64.000000 
	C1.000000,62.611111 1.000000,61.222221 1.322617,59.286331 
	C4.171317,55.808590 6.335445,52.426674 9.302873,50.046074 
	C14.603786,45.793453 15.216259,44.832806 13.148273,38.315697 
	C12.854761,37.390713 12.307637,36.470554 12.298169,35.543869 
	C12.251132,30.939726 10.000479,25.539549 15.240467,22.473318 
	C17.885481,20.925564 21.331099,20.209978 24.448820,20.101891 
	C35.936802,19.703615 33.704235,18.759014 37.138035,11.294020 
	C38.840214,7.593522 41.676697,4.414789 44.000000,1.000000 
	C46.370556,1.000000 48.741116,1.000000 51.690655,1.326201 
	C60.506954,8.565557 68.700806,9.937109 76.809998,1.452392 
	C76.915550,1.341949 76.938492,1.152547 77.000000,0.999999 
	C79.700012,1.000000 82.400032,1.000000 85.661575,1.334983 
	C88.482056,5.277452 91.223068,8.676750 92.891212,12.539382 
	C95.653275,18.934996 96.666130,19.972048 103.749489,19.999311 
	C104.910980,20.003784 106.072784,19.983566 107.233963,20.003088 
	C115.271454,20.138203 119.647293,25.692400 117.735603,33.470024 
	C117.078362,36.143970 115.665245,38.705666 115.443054,41.388668 
	C115.278893,43.371010 115.895790,46.022598 117.196953,47.403103 
	C120.487694,50.894505 124.360420,53.837383 128.000000,57.000000 
M20.097622,32.234943 
	C25.339907,46.674961 23.999846,49.500671 14.119612,57.337986 
	C8.581163,61.731251 8.562626,61.959473 14.500532,66.185600 
	C22.673531,72.002495 24.124287,75.618889 22.004337,84.890823 
	C19.727821,94.847519 19.727823,94.847527 30.071161,95.000374 
	C37.214455,95.105927 40.570213,97.516602 43.091381,104.016899 
	C44.418026,107.437370 46.049984,110.739433 48.002415,115.124313 
	C59.119518,104.043678 70.169144,103.209534 81.463982,115.088493 
	C82.926262,111.870911 84.123558,109.612106 85.003059,107.235695 
	C88.686028,97.284271 91.863235,95.067833 102.427788,94.958336 
	C104.923531,94.932472 107.413879,94.385811 110.207024,94.041718 
	C109.080902,90.395645 108.173866,87.623352 107.369461,84.821602 
	C105.470650,78.208061 107.387291,72.026299 112.225327,68.328537 
	C114.921783,66.267609 117.429901,63.960285 120.856194,61.058189 
	C106.677559,53.749954 103.257233,43.153507 110.897263,28.627258 
	C106.655449,28.369825 103.609634,28.052994 100.561188,28.025053 
	C91.885307,27.945539 88.655342,25.604809 85.716026,17.434340 
	C84.646950,14.462618 83.132149,11.651246 81.348488,7.728044 
	C69.930023,20.636959 58.722237,18.250397 47.609089,8.144556 
	C46.136398,11.921904 44.990067,14.617645 44.027573,17.377502 
	C41.325684,25.124886 37.489887,27.956306 29.442339,27.999090 
	C27.610464,28.008829 25.625750,27.570721 23.991272,28.140972 
	C22.474731,28.670076 21.332167,30.271084 20.097622,32.234943 
z"/>
<path fill="#FFFFFF" opacity="1.000000" stroke="none" 
	d="
M43.531342,1.000000 
	C41.676697,4.414789 38.840214,7.593522 37.138035,11.294020 
	C33.704235,18.759014 35.936802,19.703615 24.448820,20.101891 
	C21.331099,20.209978 17.885481,20.925564 15.240467,22.473318 
	C10.000479,25.539549 12.251132,30.939726 12.298169,35.543869 
	C12.307637,36.470554 12.854761,37.390713 13.148273,38.315697 
	C15.216259,44.832806 14.603786,45.793453 9.302873,50.046074 
	C6.335445,52.426674 4.171317,55.808590 1.322617,58.869667 
	C1.000000,39.750790 1.000000,20.501581 1.000000,1.000000 
	C15.019886,1.000000 29.041285,1.000000 43.531342,1.000000 
z"/>
<path fill="#FFFFFF" opacity="1.000000" stroke="none" 
	d="
M1.000000,64.468658 
	C3.807220,67.041451 6.327747,70.431229 9.493641,73.036888 
	C13.523837,76.353897 15.886062,79.460121 13.219296,84.959076 
	C12.007588,87.457657 12.109917,90.708954 12.051510,93.627518 
	C11.927270,99.835732 14.733265,102.684708 20.876122,102.990997 
	C21.870628,103.040588 22.870108,102.980026 23.866541,103.002945 
	C35.577736,103.272385 33.789627,104.359909 37.436329,112.735893 
	C38.770981,115.801422 40.980644,118.485992 42.895569,121.672173 
	C29.061531,122.000000 15.123063,122.000000 1.000000,122.000000 
	C1.000000,102.979500 1.000000,83.958412 1.000000,64.468658 
z"/>
<path fill="#FFFFFF" opacity="1.000000" stroke="none" 
	d="
M128.000000,56.531342 
	C124.360420,53.837383 120.487694,50.894505 117.196953,47.403103 
	C115.895790,46.022598 115.278893,43.371010 115.443054,41.388668 
	C115.665245,38.705666 117.078362,36.143970 117.735603,33.470024 
	C119.647293,25.692400 115.271454,20.138203 107.233963,20.003088 
	C106.072784,19.983566 104.910980,20.003784 103.749489,19.999311 
	C96.666130,19.972048 95.653275,18.934996 92.891212,12.539382 
	C91.223068,8.676750 88.482056,5.277452 86.111557,1.334983 
	C99.937202,1.000000 113.874413,1.000000 128.000000,1.000000 
	C128.000000,19.353798 128.000000,37.708241 128.000000,56.531342 
z"/>
<path fill="#FFFFFF" opacity="1.000000" stroke="none" 
	d="
M86.468658,122.000000 
	C88.306320,118.398773 91.201294,115.038017 92.791870,111.144409 
	C95.763474,103.870102 96.331978,103.090988 104.082016,103.002136 
	C105.245064,102.988800 106.409111,103.025909 107.571487,102.994644 
	C114.783241,102.800697 118.433884,98.863419 117.979218,91.724594 
	C117.917671,90.758224 117.791031,89.726814 117.396202,88.861679 
	C113.847000,81.084839 114.533379,74.900116 123.270340,71.023300 
	C124.998810,70.256332 126.003487,67.858154 127.670975,66.106110 
	C128.000000,84.582939 128.000000,103.165886 128.000000,122.000000 
	C114.313461,122.000000 100.625389,122.000000 86.468658,122.000000 
z"/>
<path fill="#FFFFFF" opacity="1.000000" stroke="none" 
	d="
M76.531349,0.999999 
	C76.938492,1.152547 76.915550,1.341949 76.809998,1.452392 
	C68.700806,9.937109 60.506954,8.565557 52.134819,1.326201 
	C60.020901,1.000000 68.041801,1.000000 76.531349,0.999999 
z"/>
<path fill="#FFFFFF" opacity="1.000000" stroke="none" 
	d="
M52.468651,122.000000 
	C54.680889,120.329971 57.634266,118.970970 59.978748,116.916962 
	C63.487373,113.843040 66.380524,114.451942 69.703712,117.095490 
	C71.829826,118.786781 74.375900,119.950142 76.866852,121.675095 
	C68.979103,122.000000 60.958202,122.000000 52.468651,122.000000 
z"/>
<path fill="#FFFFFF" opacity="1.000000" stroke="none" 
	d="
M20.061279,31.817530 
	C21.332167,30.271084 22.474731,28.670076 23.991272,28.140972 
	C25.625750,27.570721 27.610464,28.008829 29.442339,27.999090 
	C37.489887,27.956306 41.325684,25.124886 44.027573,17.377502 
	C44.990067,14.617645 46.136398,11.921904 47.609089,8.144556 
	C58.722237,18.250397 69.930023,20.636959 81.348488,7.728044 
	C83.132149,11.651246 84.646950,14.462618 85.716026,17.434340 
	C88.655342,25.604809 91.885307,27.945539 100.561188,28.025053 
	C103.609634,28.052994 106.655449,28.369825 110.897263,28.627258 
	C103.257233,43.153507 106.677559,53.749954 120.856194,61.058189 
	C117.429901,63.960285 114.921783,66.267609 112.225327,68.328537 
	C107.387291,72.026299 105.470650,78.208061 107.369461,84.821602 
	C108.173866,87.623352 109.080902,90.395645 110.207024,94.041718 
	C107.413879,94.385811 104.923531,94.932472 102.427788,94.958336 
	C91.863235,95.067833 88.686028,97.284271 85.003059,107.235695 
	C84.123558,109.612106 82.926262,111.870911 81.463982,115.088493 
	C70.169144,103.209534 59.119518,104.043678 48.002415,115.124313 
	C46.049984,110.739433 44.418026,107.437370 43.091381,104.016899 
	C40.570213,97.516602 37.214455,95.105927 30.071161,95.000374 
	C19.727823,94.847527 19.727821,94.847519 22.004337,84.890823 
	C24.124287,75.618889 22.673531,72.002495 14.500532,66.185600 
	C8.562626,61.959473 8.581163,61.731251 14.119612,57.337986 
	C23.999846,49.500671 25.339907,46.674961 20.061279,31.817530 
M31.863239,50.520092 
	C25.431570,70.065590 35.983021,89.421104 53.894669,94.608955 
	C73.100006,100.171494 90.946198,92.858665 97.389008,73.364700 
	C103.532616,54.775997 97.215515,35.909523 75.693176,28.539976 
	C58.710007,22.724701 39.908890,30.256256 31.863239,50.520092 
z"/>
<path fill="#8CC63F" opacity="1.000000" stroke="none" 
	d="
M31.924723,50.116856 
	C39.908890,30.256256 58.710007,22.724701 75.693176,28.539976 
	C97.215515,35.909523 103.532616,54.775997 97.389008,73.364700 
	C90.946198,92.858665 73.100006,100.171494 53.894669,94.608955 
	C35.983021,89.421104 25.431570,70.065590 31.924723,50.116856 
M89.169250,71.394875 
	C89.464035,70.308060 89.744789,69.217216 90.055679,68.135025 
	C95.894371,47.811104 75.477600,30.987480 58.506237,35.985447 
	C48.375599,38.968849 40.223976,46.646324 38.063461,60.331394 
	C36.841370,68.072304 44.536495,80.535255 52.647415,84.936447 
	C65.232430,91.765404 82.208069,86.702797 89.169250,71.394875 
z"/>
<path fill="#FFFFFF" opacity="1.000000" stroke="none" 
	d="
M89.064262,71.776718 
	C82.208069,86.702797 65.232430,91.765404 52.647415,84.936447 
	C44.536495,80.535255 36.841370,68.072304 38.063461,60.331394 
	C40.223976,46.646324 48.375599,38.968849 58.506237,35.985447 
	C75.477600,30.987480 95.894371,47.811104 90.055679,68.135025 
	C89.744789,69.217216 89.464035,70.308060 89.064262,71.776718 
z"/>
</svg>