<svg version="1.1" id="Layer_1" xmlns="http://www.w3.org/2000/svg" xmlns:xlink="http://www.w3.org/1999/xlink" x="0px" y="0px"
	 width="100%" viewBox="0 0 371 450" enable-background="new 0 0 371 450" xml:space="preserve">
<path fill="#FFFFFF" opacity="1.000000" stroke="none" 
	d="
M372.000000,400.000000 
	C372.000000,406.021149 372.000000,412.042297 371.531342,418.531738 
	C247.708450,419.000000 124.354225,419.000000 1.000000,419.000000 
	C1.000000,412.978851 1.000000,406.957703 1.468657,400.468262 
	C30.185604,400.000000 58.433895,400.000000 86.684082,400.000000 
	C86.684082,309.019440 86.684082,218.670135 86.684082,128.000000 
	C57.912918,128.000000 29.456459,128.000000 1.000000,128.000000 
	C1.000000,85.711761 1.000000,43.423531 1.000000,1.000000 
	C95.354187,1.000000 189.708435,1.000000 284.531342,1.468657 
	C285.000000,134.510223 285.000000,267.083130 285.000000,400.000000 
	C314.404755,400.000000 343.202393,400.000000 372.000000,400.000000 
M231.500000,400.000000 
	C246.587708,400.000000 261.675415,400.000000 276.611328,400.000000 
	C276.611328,279.921021 276.611328,160.547974 276.611328,41.264381 
	C247.955429,41.264381 219.688919,41.264381 191.300262,41.264381 
	C191.300262,160.901794 191.300262,280.274628 191.300262,400.000000 
	C204.565002,400.000000 217.532501,400.000000 231.500000,400.000000 
M109.508446,400.000000 
	C133.592590,400.000000 157.676743,400.000000 181.609314,400.000000 
	C181.609314,294.251617 181.609314,189.211166 181.609314,84.265976 
	C152.951675,84.265976 124.685425,84.265976 96.302910,84.265976 
	C96.302910,189.572403 96.302910,294.612610 96.302910,400.000000 
	C100.571838,400.000000 104.541885,400.000000 109.508446,400.000000 
z"/>
<path fill="#FFCF06" opacity="1.000000" stroke="none" 
	d="
M372.000000,399.531342 
	C343.202393,400.000000 314.404755,400.000000 285.000000,400.000000 
	C285.000000,267.083130 285.000000,134.510223 285.000000,1.468657 
	C313.973877,1.000000 342.947754,1.000000 372.000000,1.000000 
	C372.000000,133.687546 372.000000,266.375122 372.000000,399.531342 
M340.476013,379.000000 
	C343.904388,379.000000 347.332794,379.000000 350.619110,379.000000 
	C350.619110,259.268127 350.619110,140.229324 350.619110,21.258928 
	C335.635193,21.258928 321.033417,21.258928 306.293457,21.258928 
	C306.293457,140.556625 306.293457,259.595215 306.293457,379.000000 
	C317.549042,379.000000 328.515198,379.000000 340.476013,379.000000 
z"/>
<path fill="#FFCF06" opacity="1.000000" stroke="none" 
	d="
M1.000000,128.468658 
	C29.456459,128.000000 57.912918,128.000000 86.684082,128.000000 
	C86.684082,218.670135 86.684082,309.019440 86.684082,400.000000 
	C58.433895,400.000000 30.185604,400.000000 1.468657,400.000000 
	C1.000000,309.645782 1.000000,219.291550 1.000000,128.468658 
M67.000000,178.500000 
	C66.999825,170.672195 67.073631,162.843414 66.972069,155.016922 
	C66.909927,150.228882 64.771561,148.085861 59.984013,148.028320 
	C51.657722,147.928253 43.329372,148.000153 35.001884,148.000015 
	C30.413147,147.999954 25.824409,148.000000 21.482632,148.000000 
	C21.200609,148.854050 21.107004,149.005188 21.106924,149.156403 
	C21.067310,223.768890 21.037407,298.381378 20.992191,372.993866 
	C20.989510,377.417084 23.305820,379.053650 27.504459,379.026703 
	C39.495544,378.949799 51.487469,379.009338 63.478989,378.982544 
	C64.579102,378.980072 65.678688,378.743988 67.000000,378.590698 
	C67.000000,312.037201 67.000000,245.768600 67.000000,178.500000 
z"/>
<path fill="#FFCF06" opacity="1.000000" stroke="none" 
	d="
M1.000000,419.468658 
	C124.354225,419.000000 247.708450,419.000000 371.531342,419.000000 
	C372.000000,429.655945 372.000000,440.311859 372.000000,450.960419 
	C248.333328,450.953033 124.666656,450.953033 1.000000,450.953033 
	C1.000000,440.583160 1.000000,430.260223 1.000000,419.468658 
z"/>
<path fill="#FFCF06" opacity="1.000000" stroke="none" 
	d="
M231.000000,400.000000 
	C217.532501,400.000000 204.565002,400.000000 191.300262,400.000000 
	C191.300262,280.274628 191.300262,160.901794 191.300262,41.264381 
	C219.688919,41.264381 247.955429,41.264381 276.611328,41.264381 
	C276.611328,160.547974 276.611328,279.921021 276.611328,400.000000 
	C261.675415,400.000000 246.587708,400.000000 231.000000,400.000000 
M211.000000,371.430725 
	C211.000000,373.860504 211.000000,376.290283 211.000000,378.614807 
	C226.717758,378.614807 241.771439,378.614807 256.754517,378.614807 
	C256.754517,272.973572 256.754517,167.717728 256.754517,62.300201 
	C241.455536,62.300201 226.403351,62.300201 211.000000,62.300201 
	C211.000000,165.216614 211.000000,267.833221 211.000000,371.430725 
z"/>
<path fill="#FFCF06" opacity="1.000000" stroke="none" 
	d="
M109.010185,400.000000 
	C104.541885,400.000000 100.571838,400.000000 96.302910,400.000000 
	C96.302910,294.612610 96.302910,189.572403 96.302910,84.265976 
	C124.685425,84.265976 152.951675,84.265976 181.609314,84.265976 
	C181.609314,189.211166 181.609314,294.251617 181.609314,400.000000 
	C157.676743,400.000000 133.592590,400.000000 109.010185,400.000000 
M162.000000,233.500000 
	C162.000000,190.753403 162.000000,148.006805 162.000000,105.398544 
	C146.253906,105.398544 131.200424,105.398544 116.256302,105.398544 
	C116.256302,196.718170 116.256302,287.639038 116.256302,378.689880 
	C131.565979,378.689880 146.617630,378.689880 162.000000,378.689880 
	C162.000000,330.420380 162.000000,282.460175 162.000000,233.500000 
z"/>
<path fill="#FFFFFF" opacity="1.000000" stroke="none" 
	d="
M339.978699,379.000000 
	C328.515198,379.000000 317.549042,379.000000 306.293457,379.000000 
	C306.293457,259.595215 306.293457,140.556625 306.293457,21.258928 
	C321.033417,21.258928 335.635193,21.258928 350.619110,21.258928 
	C350.619110,140.229324 350.619110,259.268127 350.619110,379.000000 
	C347.332794,379.000000 343.904388,379.000000 339.978699,379.000000 
z"/>
<path fill="#FFFFFF" opacity="1.000000" stroke="none" 
	d="
M67.000000,179.000000 
	C67.000000,245.768600 67.000000,312.037201 67.000000,378.590698 
	C65.678688,378.743988 64.579102,378.980072 63.478989,378.982544 
	C51.487469,379.009338 39.495544,378.949799 27.504459,379.026703 
	C23.305820,379.053650 20.989510,377.417084 20.992191,372.993866 
	C21.037407,298.381378 21.067310,223.768890 21.106924,149.156403 
	C21.107004,149.005188 21.200609,148.854050 21.482632,148.000000 
	C25.824409,148.000000 30.413147,147.999954 35.001884,148.000015 
	C43.329372,148.000153 51.657722,147.928253 59.984013,148.028320 
	C64.771561,148.085861 66.909927,150.228882 66.972069,155.016922 
	C67.073631,162.843414 66.999825,170.672195 67.000000,179.000000 
z"/>
<path fill="#FFFFFF" opacity="1.000000" stroke="none" 
	d="
M211.000000,370.940277 
	C211.000000,267.833221 211.000000,165.216614 211.000000,62.300201 
	C226.403351,62.300201 241.455536,62.300201 256.754517,62.300201 
	C256.754517,167.717728 256.754517,272.973572 256.754517,378.614807 
	C241.771439,378.614807 226.717758,378.614807 211.000000,378.614807 
	C211.000000,376.290283 211.000000,373.860504 211.000000,370.940277 
z"/>
<path fill="#FFFFFF" opacity="1.000000" stroke="none" 
	d="
M162.000000,234.000000 
	C162.000000,282.460175 162.000000,330.420380 162.000000,378.689880 
	C146.617630,378.689880 131.565979,378.689880 116.256302,378.689880 
	C116.256302,287.639038 116.256302,196.718170 116.256302,105.398544 
	C131.200424,105.398544 146.253906,105.398544 162.000000,105.398544 
	C162.000000,148.006805 162.000000,190.753403 162.000000,234.000000 
z"/>
</svg>