<svg version="1.1" id="Layer_1" xmlns="http://www.w3.org/2000/svg" xmlns:xlink="http://www.w3.org/1999/xlink" x="0px" y="0px"
	 width="100%" viewBox="0 0 113 111" enable-background="new 0 0 113 111" xml:space="preserve">
<path fill="#B2363F" opacity="1.000000" stroke="none" 
	d="
M114.000000,50.000000 
	C114.000000,51.714359 114.000000,53.428715 113.615891,55.579037 
	C106.246147,58.995789 99.250931,61.954506 92.284561,64.979683 
	C91.159317,65.468330 89.433350,66.073387 89.223091,66.928902 
	C87.719788,73.045723 84.313042,77.455811 78.604134,80.136688 
	C75.870674,81.420319 73.105080,82.678909 70.519470,84.225426 
	C64.139977,88.041199 55.817112,87.719109 49.741547,83.257477 
	C49.101662,82.787567 48.418568,82.331650 47.687683,82.038193 
	C44.339489,80.693832 40.908714,79.535088 37.644829,78.015007 
	C36.835941,77.638283 35.944950,76.047791 36.104023,75.206673 
	C37.196255,69.431259 32.987984,68.953186 29.214159,68.009682 
	C19.812906,65.659248 10.405148,63.334846 1.000000,61.000000 
	C1.000000,57.307091 1.000000,53.614182 1.365071,49.301243 
	C3.018956,41.520325 4.566315,34.469223 9.700806,28.710947 
	C19.986322,34.277706 30.032078,39.301987 39.607731,45.102341 
	C43.387409,47.391846 46.135750,46.673653 49.533279,45.179165 
	C55.928139,42.366219 62.518906,42.511520 69.270073,43.970554 
	C71.603012,44.474743 74.550491,44.595394 76.582848,43.598225 
	C84.740906,39.595509 92.758705,35.271294 100.603844,30.682114 
	C104.296692,28.521896 106.530769,28.612442 107.993896,32.887901 
	C109.951157,38.607258 111.993942,44.297344 114.000000,50.000000 
z"/>
<path fill="#FFFFFF" opacity="1.000000" stroke="none" 
	d="
M114.000000,49.531342 
	C111.993942,44.297344 109.951157,38.607258 107.993896,32.887901 
	C106.530769,28.612442 104.296692,28.521896 100.603844,30.682114 
	C92.758705,35.271294 84.740906,39.595509 76.582848,43.598225 
	C74.550491,44.595394 71.603012,44.474743 69.270073,43.970554 
	C62.518906,42.511520 55.928139,42.366219 49.533279,45.179165 
	C46.135750,46.673653 43.387409,47.391846 39.607731,45.102341 
	C30.032078,39.301987 19.986322,34.277706 9.700806,28.710947 
	C4.566315,34.469223 3.018956,41.520325 1.365071,48.840607 
	C1.000000,33.060059 1.000000,17.120121 1.000000,1.000000 
	C23.687243,1.000000 46.374962,1.000000 69.531471,1.425620 
	C71.869370,14.172014 73.738480,26.492790 75.614914,38.861832 
	C76.098969,38.884678 76.692558,39.100887 77.066452,38.902676 
	C85.224663,34.577679 93.398003,30.276644 101.435844,25.736275 
	C102.241722,25.281059 102.907852,22.762732 102.428429,22.151894 
	C99.912865,18.946835 97.453018,15.375199 94.144218,13.183168 
	C87.376160,8.699438 80.079170,5.014116 73.000000,0.999999 
	C86.599884,1.000000 100.199776,1.000000 114.000000,1.000000 
	C114.000000,17.020338 114.000000,33.041512 114.000000,49.531342 
M30.009476,35.510361 
	C32.814869,37.048714 35.620262,38.587067 38.898396,40.384647 
	C40.919502,27.359344 42.853676,14.894268 44.790298,2.413434 
	C34.846081,1.568385 15.660137,15.052155 11.570215,25.111620 
	C17.507330,28.426327 23.454405,31.746593 30.009476,35.510361 
z"/>
<path fill="#FFFFFF" opacity="1.000000" stroke="none" 
	d="
M1.000000,61.468658 
	C10.405148,63.334846 19.812906,65.659248 29.214159,68.009682 
	C32.987984,68.953186 37.196255,69.431259 36.104023,75.206673 
	C35.944950,76.047791 36.835941,77.638283 37.644829,78.015007 
	C40.908714,79.535088 44.339489,80.693832 47.687683,82.038193 
	C48.418568,82.331650 49.101662,82.787567 49.741547,83.257477 
	C55.817112,87.719109 64.139977,88.041199 70.519470,84.225426 
	C73.105080,82.678909 75.870674,81.420319 78.604134,80.136688 
	C84.313042,77.455811 87.719788,73.045723 89.223091,66.928902 
	C89.433350,66.073387 91.159317,65.468330 92.284561,64.979683 
	C99.250931,61.954506 106.246147,58.995789 113.615891,56.007500 
	C114.000000,74.592789 114.000000,93.185585 114.000000,112.000000 
	C95.979713,112.000000 77.958511,112.000000 59.654640,111.617615 
	C92.287346,110.993134 112.871475,81.376839 112.451309,61.946815 
	C108.734375,63.269764 105.024422,64.440636 101.452568,65.940407 
	C100.152977,66.486084 98.546486,67.610977 98.157631,68.818604 
	C92.506363,86.368896 73.587189,98.887848 55.744827,98.344078 
	C40.290417,97.873093 22.098890,86.182785 16.911810,71.026192 
	C16.532610,69.918167 15.614335,68.297531 14.757640,68.168289 
	C10.606093,67.541962 6.389966,67.343704 2.063774,66.982666 
	C5.441365,86.631294 22.041952,104.422218 40.986111,109.029732 
	C45.623875,110.157692 50.326954,111.017113 55.000000,112.000000 
	C37.075329,112.000000 19.150654,112.000000 1.000000,112.000000 
	C1.000000,95.313118 1.000000,78.625221 1.000000,61.468658 
z"/>
<path fill="#B2363F" opacity="1.000000" stroke="none" 
	d="
M55.399994,112.000000 
	C50.326954,111.017113 45.623875,110.157692 40.986111,109.029732 
	C22.041952,104.422218 5.441365,86.631294 2.063774,66.982666 
	C6.389966,67.343704 10.606093,67.541962 14.757640,68.168289 
	C15.614335,68.297531 16.532610,69.918167 16.911810,71.026192 
	C22.098890,86.182785 40.290417,97.873093 55.744827,98.344078 
	C73.587189,98.887848 92.506363,86.368896 98.157631,68.818604 
	C98.546486,67.610977 100.152977,66.486084 101.452568,65.940407 
	C105.024422,64.440636 108.734375,63.269764 112.451309,61.946815 
	C112.871475,81.376839 92.287346,110.993134 59.185982,111.617615 
	C57.933331,112.000000 56.866661,112.000000 55.399994,112.000000 
z"/>
<path fill="#B2363F" opacity="1.000000" stroke="none" 
	d="
M72.625000,0.999999 
	C80.079170,5.014116 87.376160,8.699438 94.144218,13.183168 
	C97.453018,15.375199 99.912865,18.946835 102.428429,22.151894 
	C102.907852,22.762732 102.241722,25.281059 101.435844,25.736275 
	C93.398003,30.276644 85.224663,34.577679 77.066452,38.902676 
	C76.692558,39.100887 76.098969,38.884678 75.614914,38.861832 
	C73.738480,26.492790 71.869370,14.172014 70.000130,1.425620 
	C70.750000,1.000000 71.500000,1.000000 72.625000,0.999999 
z"/>
<path fill="#B2363F" opacity="1.000000" stroke="none" 
	d="
M29.705479,35.288612 
	C23.454405,31.746593 17.507330,28.426327 11.570215,25.111620 
	C15.660137,15.052155 34.846081,1.568385 44.790298,2.413434 
	C42.853676,14.894268 40.919502,27.359344 38.898396,40.384647 
	C35.620262,38.587067 32.814869,37.048714 29.705479,35.288612 
z"/>
</svg>