<svg version="1.1" id="Layer_1" xmlns="http://www.w3.org/2000/svg" xmlns:xlink="http://www.w3.org/1999/xlink" x="0px" y="0px"
	 width="100%" viewBox="0 0 126 133" enable-background="new 0 0 126 133" xml:space="preserve">
<path fill="#FFFFFF" opacity="1.000000" stroke="none" 
	d="
M109.000000,134.000000 
	C73.087692,134.000000 37.175392,134.000000 1.000000,134.000000 
	C1.000000,110.313087 1.000000,86.625206 1.364581,62.627392 
	C3.516054,67.670807 4.547714,73.440323 7.226778,78.302025 
	C16.484318,95.101715 30.772432,104.237061 50.234623,105.054062 
	C60.705070,105.493607 70.479424,103.401268 80.863358,97.449318 
	C79.332977,99.912521 78.620140,101.059860 77.567818,102.753609 
	C79.008873,103.961456 80.513908,105.031876 81.793015,106.325653 
	C90.887909,115.524834 99.936600,124.769691 109.000000,134.000000 
z"/>
<path fill="#FFFFFF" opacity="1.000000" stroke="none" 
	d="
M55.000000,1.000000 
	C78.943726,1.000000 102.887444,1.000000 127.000000,1.000000 
	C127.000000,39.020729 127.000000,77.041702 126.673859,115.444427 
	C116.060524,105.111656 105.773323,94.397148 95.286842,83.475082 
	C103.622292,71.788406 106.491165,58.144730 103.892799,43.619190 
	C100.572044,25.055319 84.762436,6.559031 64.259338,2.948971 
	C61.154755,2.402334 58.085564,1.654675 55.000000,1.000000 
z"/>
<path fill="#00A99D" opacity="1.000000" stroke="none" 
	d="
M54.583336,1.000000 
	C58.085564,1.654675 61.154755,2.402334 64.259338,2.948971 
	C84.762436,6.559031 100.572044,25.055319 103.892799,43.619190 
	C106.491165,58.144730 103.622292,71.788406 95.286842,83.475082 
	C105.773323,94.397148 116.060524,105.111656 126.673859,115.913086 
	C127.000000,116.444443 127.000000,116.888893 126.674332,117.753235 
	C121.232437,123.448761 116.116219,128.724380 111.000000,134.000000 
	C110.555557,134.000000 110.111107,134.000000 109.333328,134.000000 
	C99.936600,124.769691 90.887909,115.524834 81.793015,106.325653 
	C80.513908,105.031876 79.008873,103.961456 77.567818,102.753609 
	C78.620140,101.059860 79.332977,99.912521 80.863358,97.449318 
	C70.479424,103.401268 60.705070,105.493607 50.234623,105.054062 
	C30.772432,104.237061 16.484318,95.101715 7.226778,78.302025 
	C4.547714,73.440323 3.516054,67.670807 1.364581,62.158733 
	C1.000000,56.645069 1.000000,51.290142 1.364637,45.308800 
	C5.326663,24.508085 16.904949,10.994794 36.087921,4.122967 
	C40.528366,2.532287 45.352451,2.012542 50.000000,1.000000 
	C51.388889,1.000000 52.777779,1.000000 54.583336,1.000000 
M29.680969,92.945763 
	C47.156513,102.446465 64.027046,101.187271 80.658569,89.753487 
	C82.789185,94.418777 90.358788,95.453865 88.380951,102.698021 
	C88.199120,103.364029 89.100250,104.522766 89.762283,105.191628 
	C96.408409,111.906296 103.109764,118.566307 109.500191,124.946777 
	C112.442581,121.943825 115.064796,119.267639 117.766884,116.509941 
	C111.665382,110.001839 105.440742,103.138725 98.906693,96.584045 
	C97.619362,95.292641 95.139084,95.190430 93.208969,94.539787 
	C93.167747,94.833633 93.126526,95.127472 93.085304,95.421310 
	C90.155762,92.528122 87.226227,89.634933 84.299026,86.744057 
	C108.459373,61.701942 99.261581,30.768208 79.479179,16.349426 
	C57.799328,0.547645 28.968517,6.148682 14.404685,28.425600 
	C-0.685384,51.507454 7.824858,79.267410 29.680969,92.945763 
z"/>
<path fill="#FFFFFF" opacity="1.000000" stroke="none" 
	d="
M49.531342,1.000000 
	C45.352451,2.012542 40.528366,2.532287 36.087921,4.122967 
	C16.904949,10.994794 5.326663,24.508085 1.364637,44.841194 
	C1.000000,30.402674 1.000000,15.805346 1.000000,1.000000 
	C17.020294,1.000000 33.041489,1.000000 49.531342,1.000000 
z"/>
<path fill="#FFFFFF" opacity="1.000000" stroke="none" 
	d="
M111.471191,134.000000 
	C116.116219,128.724380 121.232437,123.448761 126.674332,118.086571 
	C127.000000,123.258430 127.000000,128.516861 127.000000,134.000000 
	C121.982285,134.000000 116.962341,134.000000 111.471191,134.000000 
z"/>
<path fill="#FFFFFF" opacity="1.000000" stroke="none" 
	d="
M29.363205,92.746414 
	C7.824858,79.267410 -0.685384,51.507454 14.404685,28.425600 
	C28.968517,6.148682 57.799328,0.547645 79.479179,16.349426 
	C99.261581,30.768208 108.459373,61.701942 84.299026,86.744057 
	C87.226227,89.634933 90.155762,92.528122 93.085304,95.421310 
	C93.126526,95.127472 93.167747,94.833633 93.208969,94.539787 
	C95.139084,95.190430 97.619362,95.292641 98.906693,96.584045 
	C105.440742,103.138725 111.665382,110.001839 117.766884,116.509941 
	C115.064796,119.267639 112.442581,121.943825 109.500191,124.946777 
	C103.109764,118.566307 96.408409,111.906296 89.762283,105.191628 
	C89.100250,104.522766 88.199120,103.364029 88.380951,102.698021 
	C90.358788,95.453865 82.789185,94.418777 80.658569,89.753487 
	C64.027046,101.187271 47.156513,102.446465 29.363205,92.746414 
M62.166939,18.005087 
	C57.082325,17.696978 51.805809,16.357889 46.946899,17.262323 
	C27.691629,20.846485 12.819938,37.715965 16.976732,60.331779 
	C20.212803,77.938217 33.670174,88.730186 50.571232,89.881210 
	C62.104301,90.666656 71.833000,86.280357 79.932907,77.702843 
	C90.172195,66.859787 92.156380,47.013027 84.090988,34.494213 
	C78.907326,26.448328 71.780174,21.293009 62.166939,18.005087 
z"/>
<path fill="#00A99D" opacity="1.000000" stroke="none" 
	d="
M62.589157,18.023922 
	C71.780174,21.293009 78.907326,26.448328 84.090988,34.494213 
	C92.156380,47.013027 90.172195,66.859787 79.932907,77.702843 
	C71.833000,86.280357 62.104301,90.666656 50.571232,89.881210 
	C33.670174,88.730186 20.212803,77.938217 16.976732,60.331779 
	C12.819938,37.715965 27.691629,20.846485 46.946899,17.262323 
	C51.805809,16.357889 57.082325,17.696978 62.589157,18.023922 
M22.000263,53.500366 
	C22.321682,55.087273 22.691345,56.666153 22.956848,58.262360 
	C24.998602,70.537453 32.105869,78.516060 43.804684,82.301201 
	C55.508236,86.087883 65.589630,82.989532 74.131844,74.366081 
	C84.946869,63.448193 85.336357,49.652199 79.523712,39.284313 
	C71.963928,25.800097 57.571396,20.068710 44.095181,24.470247 
	C30.583122,28.883492 23.637186,38.739597 22.000263,53.500366 
z"/>
<path fill="#FFFFFF" opacity="1.000000" stroke="none" 
	d="
M22.000698,53.060318 
	C23.637186,38.739597 30.583122,28.883492 44.095181,24.470247 
	C57.571396,20.068710 71.963928,25.800097 79.523712,39.284313 
	C85.336357,49.652199 84.946869,63.448193 74.131844,74.366081 
	C65.589630,82.989532 55.508236,86.087883 43.804684,82.301201 
	C32.105869,78.516060 24.998602,70.537453 22.956848,58.262360 
	C22.691345,56.666153 22.321682,55.087273 22.000698,53.060318 
z"/>
</svg>